<svg width="66" height="66" viewBox="0 0 66 66" fill="none" xmlns="http://www.w3.org/2000/svg">
<g clip-path="url(#clip0_612_4)">
<path d="M64.3338 32.542C64.3338 49.685 50.4348 63.584 33.2918 63.584C16.1488 63.584 2.24976 49.685 2.24976 32.542C2.24976 15.399 16.1488 1.5 33.2918 1.5C50.4384 1.5 64.3338 15.3989 64.3338 32.542Z" fill="#FFFF00" stroke="#FFFF00" stroke-width="3"/>
<path d="M16.8046 33.6355L16.9449 33.4148L25.4104 20.1717C25.5341 19.9777 25.825 19.9978 25.9186 20.2084C27.3328 23.378 28.5532 27.3199 27.9815 29.7739C27.7375 30.7836 27.0688 32.151 26.3165 33.4148C26.2196 33.5987 26.1125 33.7793 25.9988 33.9532C25.9454 34.0334 25.8551 34.0802 25.7581 34.0802H17.052C16.8179 34.0802 16.6808 33.8261 16.8046 33.6355Z" fill="#FF98D2"/>
<path d="M54.5381 36.0961V38.1923C54.5381 38.3127 54.4645 38.4197 54.3575 38.4665C53.7022 38.7474 51.4588 39.7771 50.526 41.0743C48.1455 44.3876 46.3267 49.1252 42.2611 49.1252H25.3001C19.2887 49.1252 14.4174 44.2372 14.4174 38.2057V38.0118C14.4174 37.8513 14.5477 37.7209 14.7082 37.7209H24.1633C24.3506 37.7209 24.4877 37.8948 24.471 38.0787C24.4041 38.6938 24.5178 39.3224 24.8086 39.8941C25.3703 41.0342 26.5338 41.7464 27.7909 41.7464H32.4717V38.092H27.8444C27.607 38.092 27.4666 37.8179 27.6037 37.6239C27.6539 37.5471 27.7107 37.4668 27.7709 37.3765C28.2088 36.7547 28.8341 35.7884 29.4559 34.6884C29.8805 33.9463 30.2918 33.1538 30.6228 32.3581C30.6897 32.2144 30.7431 32.0673 30.7966 31.9234C30.8869 31.6694 30.9805 31.432 31.0473 31.1946C31.1142 30.994 31.1678 30.7834 31.2213 30.5861C31.3784 29.9108 31.4452 29.1953 31.4452 28.453C31.4452 28.1622 31.4318 27.8579 31.4051 27.567C31.3918 27.2494 31.3517 26.9318 31.3115 26.6142C31.2848 26.3333 31.2346 26.0558 31.1811 25.765C31.1142 25.3403 31.0207 24.9191 30.9136 24.4945L30.8769 24.334C30.7966 24.0431 30.7297 23.7656 30.6362 23.4747C30.372 22.562 30.0678 21.6726 29.7468 20.8401C29.6298 20.5091 29.496 20.1915 29.3623 19.8739C29.165 19.3958 28.9644 18.9612 28.7805 18.5499C28.687 18.3627 28.6067 18.1922 28.5265 18.0183C28.4362 17.821 28.3426 17.6238 28.2489 17.4365C28.1821 17.2928 28.1052 17.1591 28.0517 17.0253L27.48 15.9688C27.3997 15.825 27.5335 15.6545 27.6906 15.698L31.2681 16.6676H31.2781C31.2848 16.6676 31.2881 16.6709 31.2915 16.6709L31.7628 16.8013L32.2811 16.9484L32.4717 17.0019V14.8755C32.4717 13.8491 33.2941 13.0166 34.3105 13.0166C34.8187 13.0166 35.2801 13.2239 35.6111 13.5616C35.9421 13.8993 36.1494 14.3607 36.1494 14.8755V18.0317L36.5305 18.1386C36.5606 18.1487 36.5907 18.1621 36.6175 18.1821C36.7111 18.2523 36.8448 18.356 37.0153 18.483C37.149 18.59 37.2928 18.7204 37.4667 18.8541C37.8111 19.1317 38.2223 19.4894 38.6737 19.9006C38.794 20.0043 38.911 20.1113 39.018 20.2183C39.5998 20.7599 40.2518 21.3952 40.8736 22.0973C41.0474 22.2945 41.218 22.4951 41.3918 22.7057C41.5657 22.9197 41.7495 23.1304 41.9101 23.341C42.1207 23.6218 42.348 23.9127 42.5453 24.217C42.6389 24.3608 42.7459 24.5078 42.8362 24.6516C43.0903 25.0361 43.3143 25.434 43.5283 25.8318C43.6185 26.0157 43.7121 26.2163 43.7924 26.4136C44.0297 26.9452 44.217 27.4868 44.3374 28.0285C44.3742 28.1455 44.4009 28.2725 44.4142 28.3862V28.4129C44.4544 28.5734 44.4677 28.7439 44.4811 28.9178C44.5346 29.4727 44.5079 30.0278 44.3875 30.5861C44.3374 30.8235 44.2705 31.0475 44.1903 31.2849C44.11 31.5123 44.0297 31.7496 43.9261 31.9736C43.7255 32.4383 43.4882 32.9031 43.2073 33.3377C43.117 33.4982 43.01 33.6687 42.9031 33.8292C42.786 33.9997 42.6656 34.1602 42.5587 34.3174C42.4116 34.518 42.2545 34.7286 42.0939 34.9158C41.9502 35.1131 41.8031 35.3103 41.6426 35.4842C41.4186 35.7483 41.2046 35.9991 40.9806 36.2398C40.8468 36.397 40.7031 36.5574 40.556 36.7012C40.4122 36.8617 40.2651 37.0054 40.1313 37.1391C39.9074 37.3632 39.7202 37.537 39.563 37.6808L39.1952 38.0185C39.1417 38.0653 39.0715 38.092 38.9979 38.092H36.1494V41.7464H39.7335C40.536 41.7464 41.2982 41.4622 41.9134 40.9406C42.124 40.7567 43.0435 39.961 44.1301 38.7607C44.1668 38.7206 44.2136 38.6905 44.2671 38.6771L54.1669 35.8152C54.3508 35.7617 54.5381 35.9021 54.5381 36.0961Z" fill="#FF98D2"/>
</g>
<defs>
<clipPath id="clip0_612_4">
<rect width="65.084" height="65.084" fill="white" transform="translate(0.749756)"/>
</clipPath>
</defs>
</svg>
