<svg width="66" height="67" viewBox="0 0 66 67" fill="none" xmlns="http://www.w3.org/2000/svg">
<g clip-path="url(#clip0_613_2)">
<path d="M63.5848 33.4717C63.5848 50.6157 49.6868 64.5137 32.5428 64.5137C15.3988 64.5137 1.50076 50.6157 1.50076 33.4717C1.50076 16.3277 15.3988 2.42969 32.5428 2.42969C49.6868 2.42969 63.5848 16.3277 63.5848 33.4717Z" fill="#FFFF00" stroke="#FFFF00" stroke-width="3"/>
<path d="M52.6229 24.3825C51.1993 25.0133 49.689 25.4268 48.1425 25.6093C49.7717 24.6351 50.991 23.1015 51.5729 21.2947C50.0418 22.2033 48.3665 22.8433 46.6196 23.187C45.8896 22.4085 45.0074 21.7882 44.0277 21.3646C43.0481 20.941 41.9919 20.7232 40.9246 20.7246C36.6175 20.7246 33.1243 24.2178 33.1243 28.5249C33.1243 29.1363 33.1935 29.7314 33.3273 30.3026C26.8446 29.9775 21.0966 26.8722 17.2491 22.1516C16.5553 23.342 16.1907 24.6956 16.1927 26.0735C16.1927 28.7791 17.5708 31.1676 19.6627 32.5661C18.4239 32.5279 17.2124 32.1929 16.1299 31.5894L16.1293 31.6883C16.1293 35.4677 18.8192 38.6201 22.3869 39.3362C21.7173 39.5188 21.0263 39.611 20.3323 39.6101C19.8285 39.6101 19.3404 39.5619 18.8646 39.4711C19.857 42.5694 22.7371 44.8247 26.1512 44.8881C23.3879 47.0569 19.9754 48.233 16.4627 48.2272C15.8344 48.2272 15.212 48.1905 14.6029 48.1178C18.1688 50.4104 22.3197 51.6272 26.559 51.6227C40.9065 51.6227 48.7528 39.737 48.7528 29.4283C48.7528 29.0903 48.7452 28.7535 48.7301 28.4196C50.2578 27.3165 51.5761 25.9493 52.6229 24.3825Z" fill="#FF98D2"/>
</g>
<defs>
<clipPath id="clip0_613_2">
<rect width="65.2672" height="65.2672" fill="white" transform="translate(0 0.929688)"/>
</clipPath>
</defs>
</svg>
